<svg width="1440" height="712" viewBox="0 0 1440 712" fill="none" xmlns="http://www.w3.org/2000/svg">
<g clip-path="url(#clip0_72_1757)">
<rect width="1440" height="712" fill="black"/>
<rect x="407.586" y="247.723" width="2.73802" height="2.73802" transform="rotate(45 407.586 247.723)" fill="#8EFF8B" fill-opacity="0.5"/>
<rect x="436.657" y="302.25" width="5.52977" height="5.52977" transform="rotate(45 436.657 302.25)" fill="#8EFF8B" fill-opacity="0.5"/>
<rect width="2.57312" height="2.57312" transform="matrix(-0.707129 -0.707085 -0.707129 0.707085 537.851 306.161)" fill="#8EFF8B" fill-opacity="0.5"/>
<rect x="495.379" y="354.878" width="2.73802" height="2.73802" transform="rotate(45 495.379 354.878)" fill="#8EFF8B" fill-opacity="0.5"/>
<rect x="347.286" y="241.235" width="2.73802" height="2.73802" transform="rotate(45 347.286 241.235)" fill="#8EFF8B" fill-opacity="0.5"/>
<rect x="361.893" y="149.074" width="2.73802" height="2.73802" transform="rotate(45 361.893 149.074)" fill="#8EFF8B"/>
<rect width="1.9111" height="1.9111" transform="matrix(0.707077 0.707136 -0.707077 0.707136 403.714 202.874)" fill="#8EFF8B"/>
<rect x="380.404" y="193.317" width="3.56551" height="3.56551" transform="rotate(45 380.404 193.317)" fill="#8EFF8B"/>
<rect x="255.535" y="560.599" width="3.80692" height="3.80692" transform="rotate(45 255.535 560.599)" fill="#8EFF8B" fill-opacity="0.5"/>
<rect width="7.68854" height="7.68854" transform="matrix(0.707114 0.707099 -0.707114 0.707099 295.954 636.413)" fill="#8EFF8B" fill-opacity="0.5"/>
<rect width="3.57764" height="3.57764" transform="matrix(-0.707107 -0.707107 -0.707107 0.707107 436.653 641.85)" fill="#8EFF8B" fill-opacity="0.5"/>
<rect width="3.80692" height="3.80692" transform="matrix(0.707122 0.707092 -0.707122 0.707092 377.6 709.589)" fill="#8EFF8B" fill-opacity="0.5"/>
<rect width="3.80692" height="3.80692" transform="matrix(0.707122 0.707092 -0.707122 0.707092 171.692 551.579)" fill="#8EFF8B" fill-opacity="0.5"/>
<rect x="192.003" y="423.44" width="3.80692" height="3.80692" transform="rotate(45 192.003 423.44)" fill="#8EFF8B"/>
<rect x="250.152" y="498.242" width="2.66065" height="2.66065" transform="rotate(45 250.152 498.242)" fill="#8EFF8B"/>
<rect width="4.95745" height="4.95745" transform="matrix(0.707118 0.707095 -0.707118 0.707095 217.739 484.955)" fill="#8EFF8B"/>
<rect x="1083.57" y="351.365" width="3.25833" height="3.25833" transform="rotate(-32.8977 1083.57 351.365)" fill="#8EFF8B" fill-opacity="0.5"/>
<rect x="1154.27" y="331.144" width="6.5806" height="6.58059" transform="rotate(-32.8977 1154.27 331.144)" fill="#8EFF8B" fill-opacity="0.5"/>
<rect width="3.06209" height="3.06209" transform="matrix(-0.839642 0.54314 0.54314 0.839642 1184.07 214.372)" fill="#8EFF8B" fill-opacity="0.5"/>
<rect width="3.25833" height="3.25833" transform="matrix(0.839667 -0.543102 0.543179 0.839617 1230.16 275.947)" fill="#8EFF8B" fill-opacity="0.5"/>
<rect x="1060.98" y="419.913" width="3.25833" height="3.25833" transform="rotate(-32.8977 1060.98 419.913)" fill="#8EFF8B" fill-opacity="0.5"/>
<rect x="957.389" y="379.922" width="3.25833" height="3.25833" transform="rotate(-32.8977 957.389 379.922)" fill="#8EFF8B"/>
<rect width="2.27427" height="2.27427" transform="matrix(0.839624 -0.543168 0.543113 0.83966 1030.42 344.682)" fill="#8EFF8B"/>
<rect width="4.24306" height="4.24306" transform="matrix(0.839652 -0.543126 0.543155 0.839632 1013.49 369.422)" fill="#8EFF8B"/>
<rect x="903.403" y="248.856" width="6.58059" height="6.5806" transform="rotate(9.69009 903.403 248.856)" fill="#8EFF8B" fill-opacity="0.5"/>
<rect width="3.06209" height="3.06209" transform="matrix(-0.985732 -0.168319 -0.168319 0.985733 1004.36 183.048)" fill="#8EFF8B" fill-opacity="0.5"/>
<rect x="996.63" y="259.575" width="3.25833" height="3.25833" transform="rotate(9.69009 996.63 259.575)" fill="#8EFF8B" fill-opacity="0.5"/>
<rect x="774.648" y="251.078" width="3.25833" height="3.25833" transform="rotate(9.69009 774.648 251.078)" fill="#8EFF8B" fill-opacity="0.5"/>
<rect x="725.442" y="151.534" width="3.25833" height="3.25833" transform="rotate(9.69009 725.442 151.534)" fill="#8EFF8B"/>
<rect width="2.27427" height="2.27427" transform="matrix(0.985735 0.168305 -0.168333 0.98573 803.06 175.011)" fill="#8EFF8B"/>
<rect x="773.85" y="181.765" width="4.24306" height="4.24306" transform="rotate(9.69009 773.85 181.765)" fill="#8EFF8B"/>
<rect x="1102.91" y="157.363" width="3.25833" height="3.25833" transform="rotate(-32.8977 1102.91 157.363)" fill="#8EFF8B" fill-opacity="0.5"/>
<rect x="1173.61" y="137.142" width="6.5806" height="6.58059" transform="rotate(-32.8977 1173.61 137.142)" fill="#8EFF8B" fill-opacity="0.5"/>
<rect width="3.06209" height="3.06209" transform="matrix(-0.839642 0.54314 0.54314 0.839642 1203.41 20.3706)" fill="#8EFF8B" fill-opacity="0.5"/>
<rect width="3.25833" height="3.25833" transform="matrix(0.839667 -0.543102 0.543179 0.839617 1249.5 81.9456)" fill="#8EFF8B" fill-opacity="0.5"/>
<rect x="1080.32" y="225.911" width="3.25833" height="3.25833" transform="rotate(-32.8977 1080.32 225.911)" fill="#8EFF8B" fill-opacity="0.5"/>
<rect x="976.725" y="185.92" width="3.25833" height="3.25833" transform="rotate(-32.8977 976.725 185.92)" fill="#8EFF8B"/>
<rect width="2.27427" height="2.27427" transform="matrix(0.839624 -0.543168 0.543113 0.83966 1049.76 150.68)" fill="#8EFF8B"/>
<rect width="4.24306" height="4.24306" transform="matrix(0.839652 -0.543126 0.543155 0.839632 1032.82 175.42)" fill="#8EFF8B"/>
<rect x="922.74" y="54.8542" width="6.58059" height="6.5806" transform="rotate(9.69009 922.74 54.8542)" fill="#8EFF8B" fill-opacity="0.5"/>
<rect x="1015.97" y="65.5728" width="3.25833" height="3.25833" transform="rotate(9.69009 1015.97 65.5728)" fill="#8EFF8B" fill-opacity="0.5"/>
<rect x="793.984" y="57.076" width="3.25833" height="3.25833" transform="rotate(9.69009 793.984 57.076)" fill="#8EFF8B" fill-opacity="0.5"/>
<rect x="1354.81" y="477.182" width="3.25833" height="3.25833" transform="rotate(-70.5625 1354.81 477.182)" fill="#8EFF8B" fill-opacity="0.5"/>
<rect x="1398.43" y="417.974" width="6.5806" height="6.5806" transform="rotate(-70.5625 1398.43 417.974)" fill="#8EFF8B" fill-opacity="0.5"/>
<rect width="3.06209" height="3.06209" transform="matrix(-0.332779 0.943005 0.943005 0.332779 1350.66 307.331)" fill="#8EFF8B" fill-opacity="0.5"/>
<rect width="3.25833" height="3.25833" transform="matrix(0.332822 -0.94299 0.94302 0.332736 1424.77 327.91)" fill="#8EFF8B" fill-opacity="0.5"/>
<rect x="1378.82" y="545.249" width="3.25833" height="3.25833" transform="rotate(-70.5625 1378.82 545.249)" fill="#8EFF8B" fill-opacity="0.5"/>
<rect x="1272.38" y="576.891" width="3.25833" height="3.25833" transform="rotate(-70.5625 1272.38 576.891)" fill="#8EFF8B"/>
<rect width="2.27427" height="2.27427" transform="matrix(0.332748 -0.943016 0.942994 0.33281 1308.66 504.369)" fill="#8EFF8B"/>
<rect width="4.24306" height="4.24306" transform="matrix(0.332796 -0.942999 0.943011 0.332762 1310.37 534.302)" fill="#8EFF8B"/>
<rect x="1149.56" y="506.127" width="6.5806" height="6.5806" transform="rotate(-27.9747 1149.56 506.127)" fill="#8EFF8B" fill-opacity="0.5"/>
<rect width="3.06209" height="3.06209" transform="matrix(-0.883155 0.469082 0.469082 0.883155 1189.27 392.342)" fill="#8EFF8B" fill-opacity="0.5"/>
<rect x="1229.9" y="457.646" width="3.25833" height="3.25833" transform="rotate(-27.9747 1229.9 457.646)" fill="#8EFF8B" fill-opacity="0.5"/>
<rect x="1048.99" y="586.56" width="3.25833" height="3.25833" transform="rotate(-27.9747 1048.99 586.56)" fill="#8EFF8B" fill-opacity="0.5"/>
<rect x="949.213" y="537.828" width="3.25833" height="3.25833" transform="rotate(-27.9747 949.213 537.828)" fill="#8EFF8B"/>
<rect width="2.27427" height="2.27427" transform="matrix(0.883148 -0.469094 0.469069 0.883161 1025 508.985)" fill="#8EFF8B"/>
<rect x="1006.01" y="532.18" width="4.24306" height="4.24306" transform="rotate(-27.9747 1006.01 532.18)" fill="#8EFF8B"/>
<rect x="358.141" y="113.617" width="3.25833" height="3.25833" transform="rotate(-70.5625 358.141 113.617)" fill="#8EFF8B" fill-opacity="0.5"/>
<rect x="401.752" y="54.4087" width="6.5806" height="6.5806" transform="rotate(-70.5625 401.752 54.4087)" fill="#8EFF8B" fill-opacity="0.5"/>
<rect x="382.143" y="181.684" width="3.25833" height="3.25833" transform="rotate(-70.5625 382.143 181.684)" fill="#8EFF8B" fill-opacity="0.5"/>
<rect x="275.703" y="213.326" width="3.25833" height="3.25833" transform="rotate(-70.5625 275.703 213.326)" fill="#8EFF8B"/>
<rect width="2.27427" height="2.27427" transform="matrix(0.332748 -0.943016 0.942994 0.33281 311.984 140.803)" fill="#8EFF8B"/>
<rect width="4.24306" height="4.24306" transform="matrix(0.332796 -0.942999 0.943011 0.332762 313.694 170.736)" fill="#8EFF8B"/>
<rect x="152.882" y="142.562" width="6.5806" height="6.5806" transform="rotate(-27.9747 152.882 142.562)" fill="#8EFF8B" fill-opacity="0.5"/>
<rect width="3.06209" height="3.06209" transform="matrix(-0.883155 0.469082 0.469082 0.883155 192.592 28.7768)" fill="#8EFF8B" fill-opacity="0.5"/>
<rect x="233.23" y="94.0809" width="3.25833" height="3.25833" transform="rotate(-27.9747 233.23 94.0809)" fill="#8EFF8B" fill-opacity="0.5"/>
<rect x="52.3167" y="222.995" width="3.25833" height="3.25833" transform="rotate(-27.9747 52.3167 222.995)" fill="#8EFF8B" fill-opacity="0.5"/>
<rect width="2.27427" height="2.27427" transform="matrix(0.883148 -0.469094 0.469069 0.883161 28.3276 145.42)" fill="#8EFF8B"/>
<rect x="9.33179" y="168.615" width="4.24306" height="4.24306" transform="rotate(-27.9747 9.33179 168.615)" fill="#8EFF8B"/>
<rect x="309.988" y="59.4755" width="3.25833" height="3.25833" transform="rotate(-102.297 309.988 59.4755)" fill="#8EFF8B" fill-opacity="0.5"/>
<rect x="366.204" y="104.741" width="3.25833" height="3.25833" transform="rotate(-102.297 366.204 104.741)" fill="#8EFF8B" fill-opacity="0.5"/>
<rect x="292.321" y="187.638" width="3.25833" height="3.25833" transform="rotate(-102.297 292.321 187.638)" fill="#8EFF8B"/>
<rect width="2.27427" height="2.27427" transform="matrix(-0.213009 -0.97705 0.977064 -0.212945 285.032 106.875)" fill="#8EFF8B"/>
<rect width="4.24306" height="4.24306" transform="matrix(-0.21296 -0.977061 0.977053 -0.212994 302.23 131.434)" fill="#8EFF8B"/>
<rect x="150.641" y="192.055" width="6.58059" height="6.5806" transform="rotate(-59.7091 150.641 192.055)" fill="#8EFF8B" fill-opacity="0.5"/>
<rect width="3.06209" height="3.06209" transform="matrix(-0.504391 0.863476 0.863476 0.504391 124.565 74.3954)" fill="#8EFF8B" fill-opacity="0.5"/>
<rect x="193.477" y="108.561" width="3.25833" height="3.25833" transform="rotate(-59.7091 193.477 108.561)" fill="#8EFF8B" fill-opacity="0.5"/>
<rect x="107.418" y="313.359" width="3.25833" height="3.25833" transform="rotate(-59.7091 107.418 313.359)" fill="#8EFF8B" fill-opacity="0.5"/>
<rect x="-3.07422" y="324.394" width="3.25833" height="3.25833" transform="rotate(-59.7091 -3.07422 324.394)" fill="#8EFF8B"/>
<rect width="2.27427" height="2.27427" transform="matrix(0.504378 -0.863483 0.863468 0.504403 46.2119 260)" fill="#8EFF8B"/>
<rect x="42.2561" y="289.719" width="4.24306" height="4.24306" transform="rotate(-59.7091 42.2561 289.719)" fill="#8EFF8B"/>
<rect x="1423.57" y="160.153" width="3.25833" height="3.25833" transform="rotate(-46.8075 1423.57 160.153)" fill="#8EFF8B" fill-opacity="0.5"/>
<rect x="1418.12" y="232.122" width="3.25833" height="3.25833" transform="rotate(-46.8075 1418.12 232.122)" fill="#8EFF8B" fill-opacity="0.5"/>
<rect x="1307.95" y="218.206" width="3.25833" height="3.25833" transform="rotate(-46.8075 1307.95 218.206)" fill="#8EFF8B"/>
<rect width="2.27427" height="2.27427" transform="matrix(0.684428 -0.729081 0.729036 0.684475 1370.38 166.443)" fill="#8EFF8B"/>
<rect width="4.24306" height="4.24306" transform="matrix(0.684464 -0.729046 0.72907 0.684439 1359.88 194.529)" fill="#8EFF8B"/>
<rect x="1224.04" y="103.962" width="6.58059" height="6.5806" transform="rotate(-4.21975 1224.04 103.962)" fill="#8EFF8B" fill-opacity="0.5"/>
<rect width="3.06209" height="3.06209" transform="matrix(-0.997289 0.073582 0.0735819 0.997289 1306.23 15.8135)" fill="#8EFF8B" fill-opacity="0.5"/>
<rect x="1317.11" y="91.9549" width="3.25833" height="3.25833" transform="rotate(-4.21975 1317.11 91.9549)" fill="#8EFF8B" fill-opacity="0.5"/>
<rect x="1099.6" y="137.071" width="3.25833" height="3.25833" transform="rotate(-4.21975 1099.6 137.071)" fill="#8EFF8B" fill-opacity="0.5"/>
<rect x="1027.91" y="52.2749" width="3.25833" height="3.25833" transform="rotate(-4.21975 1027.91 52.2749)" fill="#8EFF8B"/>
<rect width="2.27427" height="2.27427" transform="matrix(0.997288 -0.0735962 0.0735677 0.99729 1108.89 56.4047)" fill="#8EFF8B"/>
<rect x="1082.16" y="69.9825" width="4.24306" height="4.24306" transform="rotate(-4.21975 1082.16 69.9825)" fill="#8EFF8B"/>
<rect x="614.141" y="349.617" width="3.25833" height="3.25833" transform="rotate(-70.5625 614.141 349.617)" fill="#8EFF8B" fill-opacity="0.5"/>
<rect x="657.752" y="290.409" width="6.5806" height="6.5806" transform="rotate(-70.5625 657.752 290.409)" fill="#8EFF8B" fill-opacity="0.5"/>
<rect width="3.06209" height="3.06209" transform="matrix(-0.332779 0.943005 0.943005 0.332779 609.986 179.766)" fill="#8EFF8B" fill-opacity="0.5"/>
<rect width="3.25833" height="3.25833" transform="matrix(0.332822 -0.94299 0.94302 0.332736 684.098 200.345)" fill="#8EFF8B" fill-opacity="0.5"/>
<rect x="638.143" y="417.684" width="3.25833" height="3.25833" transform="rotate(-70.5625 638.143 417.684)" fill="#8EFF8B" fill-opacity="0.5"/>
<rect x="531.704" y="449.326" width="3.25833" height="3.25833" transform="rotate(-70.5625 531.704 449.326)" fill="#8EFF8B"/>
<rect width="2.27427" height="2.27427" transform="matrix(0.332748 -0.943016 0.942994 0.33281 567.984 376.803)" fill="#8EFF8B"/>
<rect width="4.24306" height="4.24306" transform="matrix(0.332796 -0.942999 0.943011 0.332762 569.694 406.736)" fill="#8EFF8B"/>
<rect x="408.882" y="378.562" width="6.5806" height="6.5806" transform="rotate(-27.9747 408.882 378.562)" fill="#8EFF8B" fill-opacity="0.5"/>
<rect width="3.06209" height="3.06209" transform="matrix(-0.883155 0.469082 0.469082 0.883155 448.592 264.777)" fill="#8EFF8B" fill-opacity="0.5"/>
<rect x="489.23" y="330.081" width="3.25833" height="3.25833" transform="rotate(-27.9747 489.23 330.081)" fill="#8EFF8B" fill-opacity="0.5"/>
<rect x="308.317" y="458.995" width="3.25833" height="3.25833" transform="rotate(-27.9747 308.317 458.995)" fill="#8EFF8B" fill-opacity="0.5"/>
<rect x="208.54" y="410.263" width="3.25833" height="3.25833" transform="rotate(-27.9747 208.54 410.263)" fill="#8EFF8B"/>
<rect width="2.27427" height="2.27427" transform="matrix(0.883148 -0.469094 0.469069 0.883161 284.328 381.42)" fill="#8EFF8B"/>
<rect x="265.332" y="404.615" width="4.24306" height="4.24306" transform="rotate(-27.9747 265.332 404.615)" fill="#8EFF8B"/>
<rect x="1329.14" y="141.617" width="3.25833" height="3.25833" transform="rotate(-70.5625 1329.14 141.617)" fill="#8EFF8B" fill-opacity="0.5"/>
<rect x="1372.75" y="82.4087" width="6.5806" height="6.5806" transform="rotate(-70.5625 1372.75 82.4087)" fill="#8EFF8B" fill-opacity="0.5"/>
<rect x="1353.14" y="209.684" width="3.25833" height="3.25833" transform="rotate(-70.5625 1353.14 209.684)" fill="#8EFF8B" fill-opacity="0.5"/>
<rect x="1246.7" y="241.326" width="3.25833" height="3.25833" transform="rotate(-70.5625 1246.7 241.326)" fill="#8EFF8B"/>
<rect width="2.27427" height="2.27427" transform="matrix(0.332748 -0.943016 0.942994 0.33281 1282.98 168.803)" fill="#8EFF8B"/>
<rect width="4.24306" height="4.24306" transform="matrix(0.332796 -0.942999 0.943011 0.332762 1284.69 198.736)" fill="#8EFF8B"/>
<rect x="1123.88" y="170.562" width="6.5806" height="6.5806" transform="rotate(-27.9747 1123.88 170.562)" fill="#8EFF8B" fill-opacity="0.5"/>
<rect width="3.06209" height="3.06209" transform="matrix(-0.883155 0.469082 0.469082 0.883155 1163.59 56.7768)" fill="#8EFF8B" fill-opacity="0.5"/>
<rect x="1204.23" y="122.081" width="3.25833" height="3.25833" transform="rotate(-27.9747 1204.23 122.081)" fill="#8EFF8B" fill-opacity="0.5"/>
<rect x="1023.32" y="250.995" width="3.25833" height="3.25833" transform="rotate(-27.9747 1023.32 250.995)" fill="#8EFF8B" fill-opacity="0.5"/>
<rect x="923.539" y="202.263" width="3.25833" height="3.25833" transform="rotate(-27.9747 923.539 202.263)" fill="#8EFF8B"/>
<rect width="2.27427" height="2.27427" transform="matrix(0.883148 -0.469094 0.469069 0.883161 999.326 173.42)" fill="#8EFF8B"/>
<rect x="980.331" y="196.615" width="4.24306" height="4.24306" transform="rotate(-27.9747 980.331 196.615)" fill="#8EFF8B"/>
</g>
<defs>
<clipPath id="clip0_72_1757">
<rect width="1440" height="712" fill="white"/>
</clipPath>
</defs>
</svg>
